# xmcd CD database file
#
# Track frame offsets:
#	150
#	10697
#	31155
#	48325
#	59897
#	80400
#	95292
#	110367
#	127517
#	149315
#	160372
#	175990
#	186475
#	200842
#	214657
#	228772
#	250197
#	273295
#
# Disc length: 3729 seconds
#
# Revision: 0
# Processed by: cddbd v1.5.2PL0 Copyright (c) Steve Scherf et al.
# Submitted via: CDex 1.51
#
DISCID=f40e8f12
DTITLE=la fabuleuse histoire du rock - Coutry - Folk
DYEAR=1995
DGENRE=Country
TTITLE0=The Bryrd - Mr Tambourine Man
TTITLE1=Donovan - Shunshine Superman
TTITLE2=Melanie - Lay Down
TTITLE3=Joan Baez - Blowing In The Wind
TTITLE4=The Band - The Weight
TTITLE5=Rosanne Cash - On The Inside
TTITLE6=Mary Chapin Carpenter - Passionate Kiss
TTITLE7=Billy Ray Cyrus - I won'nt Be The Last
TTITLE8=Kimmie Rhodes - Hard Promises To Keep
TTITLE9=Dolly Parton - Put A Little Love In Your Heart
TTITLE10=Willie Nelson - Mammas don't Let Your Babies Grow Up To Be Cowboys
TTITLE11=Johnny Cash - I Walk The Line (Live)
TTITLE12=Kris Kristofferson - Josie
TTITLE13=Van Morisson - Brown Eyes Girl
TTITLE14=Ian Matthews - Bride
TTITLE15=Loggins And Messina - Vahevala
TTITLE16=Fairport Convention - Who Knows Where The Time Goes
TTITLE17=Steeleye Span - Rave On
EXTD=YEAR: 1995
EXTT0=
EXTT1=
EXTT2=
EXTT3=
EXTT4=
EXTT5=
EXTT6=
EXTT7=
EXTT8=
EXTT9=
EXTT10=
EXTT11=
EXTT12=
EXTT13=
EXTT14=
EXTT15=
EXTT16=
EXTT17=
PLAYORDER=
